<mxGraphModel dx="0" dy="0" grid="1" gridSize="10" guides="1" tooltips="1" connect="1" arrows="1" fold="1" page="0" pageScale="1" background="none" math="0" shadow="0">
  <root>
    <mxCell id="0" />
    <mxCell id="1" parent="0" />
    <mxCell id="node3" parent="1" vertex="1" value="&lt;p style=&quot;margin:0px;margin-top:4px;text-align:center;&quot;&gt;&lt;b&gt;DtoMapper&lt;/b&gt;&lt;/p&gt;&lt;hr size=&quot;1&quot;/&gt;&lt;p style=&quot;margin:0 0 0 4px;line-height:1.6;&quot;&gt;- mapper: DefaultModelMapper&lt;/p&gt;&lt;hr size=&quot;1&quot;/&gt;&lt;p style=&quot;margin:0 0 0 4px;line-height:1.6;&quot;&gt;+ map(Object, Object, MappingParameters): void&lt;/p&gt;" style="verticalAlign=top;align=left;overflow=fill;fontSize=14;fontFamily=Helvetica;html=1;rounded=0;shadow=0;comic=0;labelBackgroundColor=none;strokeWidth=1;">
      <mxGeometry x="80" y="-342" width="293" height="83" as="geometry" />
    </mxCell>
    <mxCell id="node4" parent="1" vertex="1" value="&lt;p style=&quot;margin:0px;margin-top:4px;text-align:center;&quot;&gt;&lt;b&gt;EntityMapper&lt;/b&gt;&lt;/p&gt;&lt;hr size=&quot;1&quot;/&gt;&lt;p style=&quot;margin:0 0 0 4px;line-height:1.6;&quot;&gt;- stringToUuidMapper: StringToUuidMapper&lt;br/&gt;- stringToLongMapper: StringToLongMapper&lt;br/&gt;- logger: Logger&lt;br/&gt;- entityManager: SimpleJPAEntityManager&lt;br/&gt;- typeService: EntityTypeService&lt;/p&gt;&lt;hr size=&quot;1&quot;/&gt;&lt;p style=&quot;margin:0 0 0 4px;line-height:1.6;&quot;&gt;- getDtoValue(Object, String): Object?&lt;br/&gt;- convertToEntity(Object, EntityType&amp;lt;?&amp;gt;, CascadeType[], MappingParameters): Object&lt;br/&gt;+ map(Object, Class&amp;lt;T&amp;gt;, MappingParameters): T&lt;br/&gt;- checkAnyCascade(CascadeType[], CascadeType[]): boolean&lt;br/&gt;- mapAtributes(Object, Object, EntityType&amp;lt;?&amp;gt;, MappingParameters): void&lt;br/&gt;- checkAndConvertValue(Object, Class, MappingParameters): Object&lt;br/&gt;+ map(Object, Object, MappingParameters): void&lt;br/&gt;- convertToEntityCollection(Object, EntityAttribute, MappingParameters): Collection&amp;lt;Object&amp;gt;&lt;br/&gt;- getReference(Object, EntityType&amp;lt;?&amp;gt;, MappingParameters): Object&lt;br/&gt;- getDtoValue(Object, Field): Object&lt;/p&gt;" style="verticalAlign=top;align=left;overflow=fill;fontSize=14;fontFamily=Helvetica;html=1;rounded=0;shadow=0;comic=0;labelBackgroundColor=none;strokeWidth=1;">
      <mxGeometry x="-484" y="-211" width="460" height="363" as="geometry" />
    </mxCell>
    <mxCell id="node0" parent="1" vertex="1" value="&lt;p style=&quot;margin:0px;margin-top:4px;text-align:center;&quot;&gt;&lt;b&gt;ServiceDocumentController&lt;/b&gt;&lt;/p&gt;&lt;hr size=&quot;1&quot;/&gt;&lt;p style=&quot;margin:0 0 0 4px;line-height:1.6;&quot;&gt;- entityMapper: EntityMapper&lt;br/&gt;- serviceDocumentService: ServiceDocumentService&lt;br/&gt;- serviceService: ServiceService&lt;br/&gt;- dtoMapper: DtoMapper&lt;/p&gt;&lt;hr size=&quot;1&quot;/&gt;&lt;p style=&quot;margin:0 0 0 4px;line-height:1.6;&quot;&gt;+ createFinalServiceDocument(Long, ServiceDocumentDTO): ServiceDocumentDTO&lt;br/&gt;+ getProvidedDocumentTypes(Long, SortFields): List&amp;lt;ServiceDocumentDTO&amp;gt;&lt;br/&gt;- createServiceDocument(Long, ServiceDocumentDTO): ServiceDocumentDTO&lt;br/&gt;+ createServiceDocumentOld(Long, ServiceDocumentDTO): ServiceDocumentDTO&lt;br/&gt;+ getEmptyServiceDocuments(Long, boolean): List&amp;lt;ServiceDocumentDTO&amp;gt;&lt;br/&gt;+ createProvidedServiceDocument(Long, ServiceDocumentDTO): ServiceDocumentDTO&lt;br/&gt;+ getFinalDocumentsTypes(Long, SortFields, Boolean): List&amp;lt;ServiceDocumentDTO&amp;gt;&lt;br/&gt;+ getServiceDocuments(Long, EntityCondition, SortFields, LimitOffset): List&amp;lt;ServiceDocumentDTO&amp;gt;&lt;/p&gt;" style="verticalAlign=top;align=left;overflow=fill;fontSize=14;fontFamily=Helvetica;html=1;rounded=0;shadow=0;comic=0;labelBackgroundColor=none;strokeWidth=1;">
      <mxGeometry x="95" y="-196" width="501" height="297" as="geometry" />
    </mxCell>
    <mxCell id="node1" parent="1" vertex="1" value="&lt;p style=&quot;margin:0px;margin-top:4px;text-align:center;&quot;&gt;&lt;b&gt;ServiceDocumentService&lt;/b&gt;&lt;/p&gt;&lt;hr size=&quot;1&quot;/&gt;&lt;p style=&quot;margin:0 0 0 4px;line-height:1.6;&quot;&gt;- scriptEventListener: ScriptEventListener&lt;br/&gt;- serviceDocRepository: ServiceDocumentRepository&lt;/p&gt;&lt;hr size=&quot;1&quot;/&gt;&lt;p style=&quot;margin:0 0 0 4px;line-height:1.6;&quot;&gt;+ getServiceDocuments(Long): List&amp;lt;ServiceDocumentEntity&amp;gt;&lt;br/&gt;+ getServiceDocuments(EntityCondition, SortFields, LimitOffset): List&amp;lt;ServiceDocumentEntity&amp;gt;&lt;br/&gt;+ getServiceDocuments(Long, List&amp;lt;DocumentCategory&amp;gt;): List&amp;lt;ServiceDocumentEntity&amp;gt;&lt;br/&gt;+ getServiceDocuments(Long, EntityCondition, SortFields, LimitOffset): List&amp;lt;ServiceDocumentEntity&amp;gt;&lt;br/&gt;+ getServiceDocuments(Long, List&amp;lt;DocumentCategory&amp;gt;, EntityCondition, SortFields, LimitOffset): List&amp;lt;ServiceDocumentEntity&amp;gt;&lt;br/&gt;+ findById(Long): ServiceDocumentEntity&lt;br/&gt;+ createServiceDocument(ServiceDocumentEntity): ServiceDocumentEntity&lt;br/&gt;+ deleteById(Long): void&lt;br/&gt;- registerListeners(): void&lt;br/&gt;+ getAvailableServiceDocuments(Long, List&amp;lt;DocumentCategory&amp;gt;, SortFields): List&amp;lt;ServiceDocumentEntity&amp;gt;&lt;br/&gt;+ update(ServiceDocumentEntity): ServiceDocumentEntity&lt;/p&gt;" style="verticalAlign=top;align=left;overflow=fill;fontSize=14;fontFamily=Helvetica;html=1;rounded=0;shadow=0;comic=0;labelBackgroundColor=none;strokeWidth=1;">
      <mxGeometry x="13" y="117" width="524" height="319" as="geometry" />
    </mxCell>
    <mxCell id="node2" parent="1" vertex="1" value="&lt;p style=&quot;margin:0px;margin-top:4px;text-align:center;&quot;&gt;&lt;b&gt;ServiceService&lt;/b&gt;&lt;/p&gt;&lt;hr size=&quot;1&quot;/&gt;&lt;p style=&quot;margin:0 0 0 4px;line-height:1.6;&quot;&gt;- serviceCategoryRepository: ServiceCategoryRepository&lt;br/&gt;- providerService: ProviderService&lt;br/&gt;- scriptEventListener: ScriptEventListener&lt;br/&gt;- serviceRepository: ServiceRepository&lt;br/&gt;- cardViewRepository: CardViewRepository&lt;br/&gt;- requestService: RequestService&lt;br/&gt;- objectTypeService: ObjectTypeService&lt;/p&gt;&lt;hr size=&quot;1&quot;/&gt;&lt;p style=&quot;margin:0 0 0 4px;line-height:1.6;&quot;&gt;+ existById(Long): boolean&lt;br/&gt;+ getAvaliableServiceEntity(EntityCondition, SortFields, LimitOffset): List&amp;lt;ServiceEntity&amp;gt;&lt;br/&gt;- isAvaliableService(ServiceEntity, SystemUser): boolean&lt;br/&gt;+ updateService(ServiceEntity): ServiceEntity&lt;br/&gt;+ createService(ServiceEntity): ServiceEntity&lt;br/&gt;- createCardView(ServiceEntity): CardViewEntity&lt;br/&gt;+ addProvider(Long, Long): ProviderEntity&lt;br/&gt;+ find(EntityCondition, SortFields, LimitOffset): List&amp;lt;ServiceEntity&amp;gt;&lt;br/&gt;+ count(EntityCondition): int&lt;br/&gt;+ isAvaliableService(ServiceEntity): boolean&lt;br/&gt;+ findByProviderId(Long, EntityCondition, SortFields, LimitOffset): List&amp;lt;ServiceEntity&amp;gt;&lt;br/&gt;+ changeState(Long, int): void&lt;br/&gt;+ getService(Long): ServiceEntity&lt;br/&gt;+ deleteService(Long): void&lt;br/&gt;+ searchByText(String): List&amp;lt;ServiceEntity&amp;gt;&lt;br/&gt;+ findByServiceId(Long): List&amp;lt;ProviderEntity&amp;gt;&lt;br/&gt;+ countByReglamentId(Long): int&lt;br/&gt;- registerListeners(): void&lt;/p&gt;" style="verticalAlign=top;align=left;overflow=fill;fontSize=14;fontFamily=Helvetica;html=1;rounded=0;shadow=0;comic=0;labelBackgroundColor=none;strokeWidth=1;">
      <mxGeometry x="656" y="-281" width="453" height="583" as="geometry" />
    </mxCell>
    <mxCell id="edge2" edge="1" value="" parent="1" source="node0" target="node3" style="html=1;rounded=1;edgeStyle=orthogonalEdgeStyle;dashed=0;startArrow=diamondThinstartSize=12;endArrow=openThin;endSize=12;strokeColor=#595959;exitX=0.198;exitY=0.000;exitDx=0;exitDy=0;entryX=0.390;entryY=1.000;entryDx=0;entryDy=0;">
      <mxGeometry width="50" height="50" relative="1" as="geometry">
        <Array as="points" />
      </mxGeometry>
    </mxCell>
    <mxCell id="label12" parent="edge2" vertex="1" connectable="0" value="1" style="edgeLabel;resizable=0;html=1;align=left;verticalAlign=top;strokeColor=default;">
      <mxGeometry x="194" y="-256" as="geometry" />
    </mxCell>
    <mxCell id="label16" parent="edge2" vertex="1" connectable="0" value="1" style="edgeLabel;resizable=0;html=1;align=left;verticalAlign=top;strokeColor=default;">
      <mxGeometry x="194" y="-224" as="geometry" />
    </mxCell>
    <mxCell id="label17" parent="edge2" vertex="1" connectable="0" value="dtoMapper" style="edgeLabel;resizable=0;html=1;align=left;verticalAlign=top;strokeColor=default;">
      <mxGeometry x="132" y="-260" as="geometry" />
    </mxCell>
    <mxCell id="edge3" edge="1" value="" parent="1" source="node0" target="node4" style="html=1;rounded=1;edgeStyle=orthogonalEdgeStyle;dashed=0;startArrow=diamondThinstartSize=12;endArrow=openThin;endSize=12;strokeColor=#595959;exitX=0.000;exitY=0.559;exitDx=0;exitDy=0;entryX=1.000;entryY=0.500;entryDx=0;entryDy=0;">
      <mxGeometry width="50" height="50" relative="1" as="geometry">
        <Array as="points">
          <mxPoint x="83" y="-30" />
          <mxPoint x="83" y="-29" />
          <mxPoint x="10" y="-29" />
          <mxPoint x="10" y="-29" />
        </Array>
      </mxGeometry>
    </mxCell>
    <mxCell id="label18" parent="edge3" vertex="1" connectable="0" value="1" style="edgeLabel;resizable=0;html=1;align=left;verticalAlign=top;strokeColor=default;">
      <mxGeometry x="-18" y="-48" as="geometry" />
    </mxCell>
    <mxCell id="label22" parent="edge3" vertex="1" connectable="0" value="1" style="edgeLabel;resizable=0;html=1;align=left;verticalAlign=top;strokeColor=default;">
      <mxGeometry x="3" y="-48" as="geometry" />
    </mxCell>
    <mxCell id="label23" parent="edge3" vertex="1" connectable="0" value="entityMapper" style="edgeLabel;resizable=0;html=1;align=left;verticalAlign=top;strokeColor=default;">
      <mxGeometry x="6" y="-57" as="geometry" />
    </mxCell>
    <mxCell id="edge0" edge="1" value="" parent="1" source="node0" target="node1" style="html=1;rounded=1;edgeStyle=orthogonalEdgeStyle;dashed=0;startArrow=diamondThinstartSize=12;endArrow=openThin;endSize=12;strokeColor=#595959;exitX=0.985;exitY=1.000;exitDx=0;exitDy=0;entryX=1.000;entryY=0.360;entryDx=0;entryDy=0;">
      <mxGeometry width="50" height="50" relative="1" as="geometry">
        <Array as="points">
          <mxPoint x="588" y="231" />
        </Array>
      </mxGeometry>
    </mxCell>
    <mxCell id="label0" parent="edge0" vertex="1" connectable="0" value="1" style="edgeLabel;resizable=0;html=1;align=left;verticalAlign=top;strokeColor=default;">
      <mxGeometry x="558" y="231" as="geometry" />
    </mxCell>
    <mxCell id="label4" parent="edge0" vertex="1" connectable="0" value="1" style="edgeLabel;resizable=0;html=1;align=left;verticalAlign=top;strokeColor=default;">
      <mxGeometry x="566" y="231" as="geometry" />
    </mxCell>
    <mxCell id="label5" parent="edge0" vertex="1" connectable="0" value="serviceDocumentService" style="edgeLabel;resizable=0;html=1;align=left;verticalAlign=top;strokeColor=default;">
      <mxGeometry x="518" y="292" as="geometry" />
    </mxCell>
    <mxCell id="edge1" edge="1" value="" parent="1" source="node0" target="node2" style="html=1;rounded=1;edgeStyle=orthogonalEdgeStyle;dashed=0;startArrow=diamondThinstartSize=12;endArrow=openThin;endSize=12;strokeColor=#595959;exitX=1.000;exitY=0.695;exitDx=0;exitDy=0;entryX=0.000;entryY=0.500;entryDx=0;entryDy=0;">
      <mxGeometry width="50" height="50" relative="1" as="geometry">
        <Array as="points">
          <mxPoint x="626" y="10" />
          <mxPoint x="626" y="10" />
        </Array>
      </mxGeometry>
    </mxCell>
    <mxCell id="label6" parent="edge1" vertex="1" connectable="0" value="1" style="edgeLabel;resizable=0;html=1;align=left;verticalAlign=top;strokeColor=default;">
      <mxGeometry x="639" y="-9" as="geometry" />
    </mxCell>
    <mxCell id="label10" parent="edge1" vertex="1" connectable="0" value="1" style="edgeLabel;resizable=0;html=1;align=left;verticalAlign=top;strokeColor=default;">
      <mxGeometry x="622" y="-9" as="geometry" />
    </mxCell>
    <mxCell id="label11" parent="edge1" vertex="1" connectable="0" value="serviceService" style="edgeLabel;resizable=0;html=1;align=left;verticalAlign=top;strokeColor=default;">
      <mxGeometry x="581" y="-20" as="geometry" />
    </mxCell>
  </root>
</mxGraphModel>